<?xml version="1.0" standalone="no"?>
<!DOCTYPE svg PUBLIC "-//W3C//DTD SVG 20010904//EN"
 "http://www.w3.org/TR/2001/REC-SVG-20010904/DTD/svg10.dtd">
<svg version="1.0" xmlns="http://www.w3.org/2000/svg"
 width="108.000000pt" height="108.000000pt" viewBox="0 0 108.000000 108.000000"
 preserveAspectRatio="xMidYMid meet">
<metadata>
Created by potrace 1.11, written by Peter Selinger 2001-2013
</metadata>
<g transform="translate(0.000000,108.000000) scale(0.100000,-0.100000)"
fill="#000000" stroke="none">
<path d="M0 540 l0 -540 540 0 540 0 0 540 0 540 -540 0 -540 0 0 -540z m756
491 l179 1 3 -24 c3 -21 7 -23 62 -21 34 2 60 -2 60 -7 0 -6 -27 -10 -60 -10
l-60 0 0 -225 0 -225 63 -2 62 -2 -62 -3 -63 -4 0 -180 c0 -151 3 -184 17
-207 30 -49 56 -72 80 -72 13 0 23 -4 23 -10 0 -6 -28 -10 -64 -10 -42 0 -66
-4 -69 -12 -3 -8 -6 -6 -6 5 -1 16 -19 17 -293 15 -386 -3 -613 0 -604 9 4 4
34 8 66 9 66 1 83 11 109 63 16 31 18 61 17 211 l-1 175 -100 5 -100 6 100 4
100 5 3 228 2 227 -97 0 c-53 0 -94 3 -90 6 3 3 46 7 94 8 81 1 88 3 88 21 0
19 7 20 162 20 89 0 165 4 169 8 4 4 12 2 19 -3 6 -5 89 -9 191 -9z"/>
<path d="M234 1008 c-3 -5 -4 -11 -2 -13 2 -2 157 -5 346 -7 269 -2 342 0 342
10 0 9 -32 12 -122 13 -498 7 -559 6 -564 -3z"/>
<path d="M230 749 l0 -229 73 0 72 0 48 113 c26 61 56 138 67 170 19 59 19 59
0 98 -30 59 -54 70 -164 74 l-96 4 0 -230z"/>
<path d="M580 976 c0 -4 20 -50 45 -103 25 -52 45 -97 45 -98 0 -2 13 -32 29
-67 16 -35 40 -90 54 -123 l25 -60 70 -3 69 -3 7 148 c4 81 6 183 5 226 l-3
77 -120 0 c-67 0 -145 3 -173 6 -29 4 -53 4 -53 0z"/>
<path d="M542 750 c-6 -14 -27 -65 -47 -115 -20 -49 -38 -96 -42 -102 -4 -10
20 -13 101 -13 58 0 106 1 106 3 0 1 -21 49 -46 107 -25 58 -49 114 -54 125
-7 19 -8 19 -18 -5z"/>
<path d="M231 348 l1 -163 25 55 c14 30 43 98 65 150 21 52 42 101 45 108 4 9
-13 12 -66 12 l-71 0 1 -162z"/>
<path d="M441 491 c-6 -11 -11 -22 -11 -25 0 -3 58 -6 130 -6 l129 0 -8 23
c-8 21 -15 22 -119 25 -102 2 -112 1 -121 -17z"/>
<path d="M800 500 c0 -13 108 -272 118 -282 4 -4 6 59 5 140 l-1 147 -61 3
c-39 2 -61 -1 -61 -8z"/>
<path d="M464 403 c-48 -3 -63 -8 -67 -21 -3 -9 -23 -60 -45 -112 -78 -192
-75 -177 -52 -200 19 -19 33 -20 268 -20 136 0 253 4 261 9 9 6 12 19 8 37 -5
27 -111 291 -121 301 -6 6 -176 10 -252 6z"/>
</g>
</svg>
